<?xml version="1.0" encoding="UTF-8" standalone="no"?>
<svg
   version="1.1"
   width="872"
   height="675"
   id="svg50"
   sodipodi:docname="clerktools_icon2.svg"
   inkscape:version="1.4.2 (ebf0e940, 2025-05-08)"
   xmlns:inkscape="http://www.inkscape.org/namespaces/inkscape"
   xmlns:sodipodi="http://sodipodi.sourceforge.net/DTD/sodipodi-0.dtd"
   xmlns="http://www.w3.org/2000/svg"
   xmlns:svg="http://www.w3.org/2000/svg">
  <defs
     id="defs50" />
  <sodipodi:namedview
     id="namedview50"
     pagecolor="#ffffff"
     bordercolor="#000000"
     borderopacity="0.25"
     inkscape:showpageshadow="2"
     inkscape:pageopacity="0.0"
     inkscape:pagecheckerboard="0"
     inkscape:deskcolor="#d1d1d1"
     showgrid="true"
     inkscape:zoom="0.6584315"
     inkscape:cx="507.26613"
     inkscape:cy="235.40793"
     inkscape:window-width="1472"
     inkscape:window-height="923"
     inkscape:window-x="0"
     inkscape:window-y="33"
     inkscape:window-maximized="0"
     inkscape:current-layer="svg50">
    <inkscape:grid
       id="grid50"
       units="px"
       originx="0"
       originy="0"
       spacingx="1"
       spacingy="1"
       empcolor="#0099e5"
       empopacity="0.30196078"
       color="#0099e5"
       opacity="0.14901961"
       empspacing="5"
       enabled="true"
       visible="true" />
  </sodipodi:namedview>
  <path
     id="path1"
     style="display:inline"
     transform="translate(261.125,22)"
     d="m -31.986328,-9.4863281 c -7.340088,-0.1129828 -8.269922,1.8175932 -10.330078,2.7207031 -2.060156,0.9031099 -0.945434,0.3454704 -2.371094,1.515625 -6.389949,5.24474893 -6.310411,8.1486759 -6.4375,8.25 -1.610346,1.2838809 -4.812448,-0.032167 -9.9375,0.8125 -4.393382,0.7240799 -13.55439,-1.4194405 -23.101562,5.6953125 -12.342862,9.1981595 -17.434208,33.9815585 -25.548788,64.5541845 -5.09622,17.99695 -5.60516,39.545623 -15.84662,46.145733 -7.89867,5.78183 -21.9767,48.17514 -19.22834,73.2781 3.42914,31.32112 43.18324,83.19918 43.20589,84.07257 -2.00827,7.21677 -3.65789,17.2048 -13.54308,25.4416 -5.25722,3.85763 -18.21244,-3.37333 -31,0 -12.78756,3.37333 -31.56099,10.20391 -42.05859,23.84961 -10.4976,13.6457 -16.4264,35.28726 -13.94141,53.15039 2.48499,17.86313 25.88462,44.76135 27.0625,45.875 1.17788,1.11365 5.94406,5.42907 5.9375,5.125 -0.007,-0.30407 -0.97083,8.16485 -4.02734,14.4707 -3.05651,6.30585 -1.36886,3.33351 -3.81446,8.70508 -2.4456,5.37157 -3.76166,10.71196 -6.1582,12.82422 -2.39654,2.11226 -3.17133,0.91915 -4.6875,1.5625 -12.65575,5.3702 -26.74885,9.45325 -36.5669,19.07682 -8.15096,7.9895 -15.04538,18.70714 -16.44173,30.035 -1.6704,13.55097 5.55423,26.84834 10.3544,39.63026 0.87694,2.33511 2.76638,4.26834 3.34173,6.69542 0.69709,2.94065 0.49166,6.96261 0.0234,9.06641 -0.46826,2.1038 -0.86148,1.80924 -1.64844,3.49609 -0.78696,1.68685 -1.4827,3.21684 -3.06055,6.63086 -1.57785,3.41402 -4.89793,10.57662 -6.41015,13.85156 -1.51222,3.27494 -1.00399,1.35734 -2.66992,5.79492 -1.66593,4.43758 -6.96225,15.97976 -6.23438,21.16016 0.72787,5.1804 1.66405,5.86334 5,7.875 3.33595,2.01166 10.37076,2.78506 14,1.125 3.62924,-1.66006 4.77525,-6.25184 5.85352,-7.98438 1.07827,-1.73254 -0.69553,1.44376 1.08398,-2.07812 1.77951,-3.52188 7.59376,-15.40643 9.37305,-19.16211 1.77929,-3.75568 0.22022,-0.47956 1.50195,-3.27539 1.28173,-2.79583 4.33548,-9.46961 6.1875,-13.5 1.85202,-4.03039 3.83537,-8.34131 4.92188,-10.68359 1.08651,-2.34228 1.06649,-2.26883 1.57812,-3.37891 0.51163,-1.11008 1.00752,-2.23383 1.49219,-3.28125 0.48467,-1.04742 0.75591,-1.72187 1.41406,-3.00391 0.65815,-1.28204 0.81849,-3.56741 2.59375,-4.65234 1.77526,-1.08493 2.96555,-0.72963 7.15234,-0.25 4.18679,0.47963 26.22474,1.13655 33.84766,11.25 5.88817,19.62958 12.54189,35.08928 27.25803,44.20674 14.26081,8.83535 33.672338,7.88418 50.119337,4.57808 6.819317,-1.37079 11.489525,-10.19297 18.433027,-9.78074 2.734313,0.16233 2.33717,3.24513 6.752106,4.68342 7.904883,2.07055 13.970339,5.91247 21.413493,5.53936 2.678119,0.0432 14.7794,0.27621 17.3609261,0.31044 13.5561017,0.17959 30.0560939,1.32951 45.0947219,1.59546 6.284824,0.11114 12.571614,-3.4e-4 18.857421,0 12.33724,6.7e-4 25.428711,0.004 37.011719,0.004 11.583009,-9e-5 26.708339,-0.004 32.486329,-0.004 5.77799,-3.6e-4 0.35547,-2.1e-4 2.18164,0 1.82617,2.1e-4 -6.37337,6.4e-4 8.77539,0.002 15.14876,10e-4 56.26205,-0.003 82.11719,-0.004 25.85514,-6.3e-4 47.12174,-6.3e-4 73.01367,0 25.89193,6.3e-4 67.15234,0.004 82.33789,0.004 15.18555,3.7e-4 6.94889,0 8.77539,0 1.8265,0 -3.60611,-1.8e-4 2.1836,0 5.78971,1.8e-4 21.26139,0.002 32.55468,0.002 11.29329,3e-5 26.15886,-7.9e-4 35.20508,-0.002 9.04622,-10e-4 12.94825,-0.004 19.07227,-0.004 6.12402,-3e-4 13.65299,0.004 17.67187,0.002 4.01888,-0.002 3.88933,-0.005 6.44141,-0.006 2.55208,-6.1e-4 6.94498,0.006 8.87109,0.004 1.92611,-0.002 -4.61055,1.11368 2.68555,-0.006 7.2961,-1.11968 29.69363,-2.69676 39.71679,-12.38672 10.02316,-9.68996 12.62753,-32.25937 13.86719,-39.6914 1.23966,-7.43203 -0.0109,-0.81283 -0.0176,-3.16407 -0.007,-2.35124 3.6e-4,-7.44271 -0.002,-10.94336 -0.002,-3.50065 -0.008,-5.47363 -0.0117,-10.06054 -0.004,-4.58691 -0.004,-10.31218 -0.01,-17.46094 -0.006,-7.14876 -0.0167,-14.31836 -0.0274,-25.43164 -0.0107,-11.11328 -0.0221,-27.67871 -0.0351,-41.24805 -0.013,-13.56934 -0.0364,-33.05501 -0.043,-40.16797 -0.007,-7.11296 -2e-4,-0.0117 -0.002,-2.50976 -0.002,-2.49805 0.008,6.90364 -0.008,-12.47852 -0.0155,-19.38216 -0.0812,-86.21745 -0.0996,-103.81445 -0.0184,-17.597 -0.48488,-1.2915 -0.002,-1.76758 0.48288,-0.47608 1.41536,0.0244 2.30078,0.0352 0.88542,0.0108 0.12106,0.53124 3.01172,0.0273 2.89066,-0.50394 9.77555,-0.5547 13.6875,-5.0625 3.91195,-4.5078 4.03869,-16.44938 4.48438,-20.73828 0.44569,-4.2889 -0.0171,-2.24935 -0.0273,-4.6543 -0.0102,-2.40495 -0.0116,-6.04199 -0.0254,-9.77539 -0.0138,-3.7334 -0.0486,-8.87369 -0.0606,-12.625 -0.012,-3.75131 -0.009,-7.44466 -0.0156,-9.88281 -0.007,-2.43815 0.4648,1.71647 -0.0195,-4.7461 -0.4843,-6.46257 -3.0764,-28.02217 -4.94922,-33.77734 -1.87282,-5.75517 0.73406,0.96818 -1.01172,-1.92578 -1.74578,-2.89396 -0.38261,-7.4345 -10.25,-14.92188 -9.86739,-7.48738 -43.03004,-16.54934 -53.19531,-18.17968 -10.16527,-1.63034 -2.47723,0.0312 -5.55469,0.0625 -3.07746,0.0313 -10.18103,0.0863 -12.91016,0.11718 -2.72913,0.0309 -2.75966,0.75238 -3.46484,0.0469 -0.70518,-0.70548 0.0244,-1.55078 0.0352,-2.51953 0.0108,-0.96875 0.30722,-0.84243 0.0273,-3.29297 -0.27992,-2.45054 0.94599,-7.41277 -2.6875,-11.1875 -3.63349,-3.77473 -15.26419,-4.86425 -19.1875,-5.39062 -3.92331,-0.52637 -1.49154,0.0174 -3.82031,0.0273 -2.32877,0.01 -6.69564,0.006 -10.15235,0.0137 -3.45671,0.008 -7.44075,0.0279 -10.58789,0.0332 -3.14714,0.005 -6.25163,-0.002 -8.29492,0.002 -2.04329,0.004 -2.66536,0.0118 -3.96484,0.0137 -1.29948,0.002 -2.5983,-0.006 -3.83203,-0.002 -1.23373,0.004 -0.79427,-0.3618 -3.57032,0.0273 -2.77605,0.3891 -9.50015,0.51759 -12.76562,3.54492 -3.26547,3.02733 -4.11222,9.44375 -4.57422,12.66797 -0.462,3.22422 3.69442,2.53196 0.37559,6.06275 -3.31883,3.53079 -17.42658,5.51396 -23,0 -5.57342,-5.51396 -0.1907,-17.98438 -0.25781,-24.03906 -0.0671,-6.05468 -0.0957,-8.24023 -0.14063,-12.28906 -0.0449,-4.04883 -0.0964,-9.23699 -0.1289,-12.00391 -0.0325,-2.76692 1.96899,6.02713 -0.0586,-4.59766 -2.02759,-10.62479 -7.80233,-42.995214 -21.49023,-56.341794 -13.6879,-13.34658 -41.59728,-16.451794 -51.30664,-18.09961 -9.70936,-1.647816 -1.7614,0.0083 -4.6836,0.01367 -2.9222,0.0054 -8.43652,0.004 -12.84961,0.0098 -4.41309,0.0058 -7.54785,0.01531 -13.6289,0.02539 -6.08105,0.01008 -14.12825,0.01935 -22.85742,0.0332 -8.72917,0.01385 -20.32552,0.03797 -29.51758,0.05078 -9.19206,0.01281 -19.9987,0.0203 -25.63477,0.02734 -5.63607,0.007 -4.639,0.006 -8.18164,0.01172 -3.54264,0.0057 -10.09343,0.01592 -13.07422,0.02344 -2.98079,0.0075 -2.89127,0.01111 -4.81054,0.01563 -1.91927,0.0045 -5.25033,0.0052 -6.70508,0.0098 -1.45475,0.0046 -0.57767,-0.009 -2.02344,0.0098 -1.44577,0.01879 3.17482,-3.140351 -6.65039,0.140625 -9.82521,3.280976 -38.07242,25.543379 -45.05859,32.402344 -6.98617,6.858965 -1.0377,2.905173 -1.94141,2.597656 -0.90371,-0.307517 0.0244,-1.526042 0.0352,-2.484375 0.0108,-0.958333 0.13461,-1.006396 0.0273,-3.265625 -0.10731,-2.259229 2.88443,-3.356853 -1.0625,-10.25 C 108.92807,52.106954 88.543275,40.372646 82.78125,36.871195 77.019225,33.369744 80.946504,35.915358 80,35.5 75.934094,33.715742 72.016313,30.713196 67.576172,30.695312 61.6257,30.671344 55.065299,32.775064 50.875,37 42.402833,45.542198 37.52334,62.582275 38.40625,70.871094 c 0.88291,8.288819 3.807903,8.886373 7.453125,11.757812 C 59.142969,93.092749 84.672621,99.32247 93.875,99 c 9.20238,-0.32247 3.054411,-1.338694 4.164062,-1.753906 1.109651,-0.415212 1.321615,-0.434245 2.460938,-0.808594 1.13932,-0.374349 0.13157,-4.020129 4.375,-1.4375 4.24343,2.582629 4.69353,16.50653 4.01172,24.87891 -0.43936,5.39519 -2.45615,10.70459 -5.14507,15.40255 -5.412165,9.45589 -11.513383,20.24377 -21.486158,24.63116 -18.29114,8.04695 -28.343921,6.90649 -59.930805,-1.47343 -2.297448,-0.6095 5.259559,-7.69223 7.579208,-11.72753 2.16776,-3.77107 5.033291,-7.37488 5.906028,-11.63615 C 37.272792,127.93283 37.428876,119.87035 34.375,113.2498 29.658488,103.02479 20.543956,94.067028 10.171875,89.683394 c -10.23210024,-4.324473 -23.04469,-5.160863 -33.3125,-0.921875 -8.672792,3.580497 -16.086485,11.620901 -19.393571,20.401591 -4.54881,12.07761 -2.181812,26.32816 1.535613,38.687 1.529362,5.08448 6.287335,5.44757 8.253426,13.62345 1.966092,8.17587 -33.647647,13.46253 -43.192343,24.27624 -9.544696,10.81371 -14.216125,33.52843 -15.328125,41.11719 -0.191798,4.98913 -2.30484,-1.40002 -3.25,-2.34375 -5.622365,-5.61389 -11.287035,-11.83372 -13.971165,-19.31184 -4.77128,-13.29305 -4.7482,-28.16766 -2.66437,-42.28635 1.95601,-13.25265 1.866,-26.80969 4.59378,-39.92525 0.92181,-4.43218 2.69463,-8.64439 3.95582,-12.99219 1.87337,-6.4582 3.669886,-12.939553 5.363279,-19.447263 0.928762,-3.569233 0.741025,-3.855596 3.113281,-12.685347 2.240697,-8.340076 9.022837,-32.657388 11.585938,-39.675781 1.411327,-3.864556 2.863299,-6.721545 3.414062,-7.199219 0.961241,-0.83368 6.260843,-6.683337 9.581746,-7.724827 3.320903,-1.041487 10.893814,-1.692526 13.422964,3.01256 2.52915,4.705086 29.041304,32.677969 55.18279,31.024767 C 13.851518,52.467586 21.09417,23.010287 17.875,14 15.072685,6.1564681 5.6634329,2.9291175 2.4042969,0.96875 -0.85483908,-0.99161751 5.6581422,1.9739576 0,0 -5.6581422,-1.9739576 -24.64624,-9.3733453 -31.986328,-9.4863281 Z M 183.875,115 c 20.62395,-20.623948 102.37605,-20.623948 123,0 20.62395,20.62395 20.62395,31.37605 0,52 -20.62395,20.62395 -102.37605,20.62395 -123,0 -20.62395,-20.62395 -20.62395,-31.37605 0,-52 z m -79,45 c 1.75313,-0.43544 1.27834,-0.16767 2,1 0.72166,1.16767 1.53206,4.46794 0,6 -1.53206,1.53206 -5.81011,2.31218 -7,0 -1.189889,-2.31218 3.24687,-6.56456 5,-7 z m -246.04824,391.44522 c -6.12783,0.9689 -11.29353,-1.78347 -18.18556,-3.96071 -1.01993,-0.31886 -13.3746,-3.2776 -14.48886,-3.63295 -1.11426,-0.35535 -2.05205,-0.67718 -2.96484,-0.97656 -0.91279,-0.29938 -1.58969,-0.2259 -2.51172,-0.82031 -0.92203,-0.59441 -2.13687,-0.75744 -2.66016,-2.90625 -0.52329,-2.14881 1.70865,-7.00349 2.42969,-9.00782 0.72104,-2.00433 0.7217,-1.56494 1.42969,-3.14062 0.70799,-1.57568 2.16166,-4.90615 2.80273,-6.32031 0.64107,-1.41416 -0.23089,-0.22215 1.00977,-2.17969 1.24066,-1.95754 4.8546,-7.33402 7.375,-8.82812 9.27555,-5.49857 -3.41226,2.23935 8.23047,-1.75 6.28293,-2.15283 24.09604,-5.32164 34.33984,-15.08985 10.2438,-9.76821 20.02847,-27.77203 21.11719,-42.45703 1.08872,-14.685 -8.69886,-31.73092 -12.625,-38.9375 -3.92614,-7.20658 -4.38513,-4.18133 -5.25,-6.4375 -0.86487,-2.25617 -0.64457,-4.31555 -0.29688,-6.18359 0.34769,-1.86804 0.8788,-1.89997 2.10547,-4.76563 1.22667,-2.86566 3.91338,-9.4572 5.16602,-12.46484 1.25264,-3.00764 1.3736,-3.27114 2.33789,-5.58594 0.96429,-2.3148 2.68249,-6.48277 3.44336,-8.30469 0.76087,-1.82192 -1.04476,0.91125 1.10742,-2.63281 2.15218,-3.54406 9.082959,-10.84562 14.07422,-16.9375 4.991261,-6.09188 22.11692,-52.47358 24.821304,-44.39697 14.424225,43.07778 18.571202,236.42439 6.932204,230.91219 -9.34227,-4.42447 -18.328558,-6.74961 -27.943968,-7.63227 -4.074253,-0.374 -8.181662,0.44158 -12.23134,1.02425 -4.16732,0.59959 -8.46783,0.96439 -12.37324,2.53724 -4.612,1.85743 -8.18011,3.90157 -12.61,7.96696 -1.74161,1.59831 -4.2134,6.11572 -7.01061,8.49289 -2.22604,1.89177 -4.68462,3.95969 -7.57009,4.41593 z m 2.67651,-202.73854 c 2.86367,-0.58572 8.33418,0.92441 8.60271,1.69891 0.26853,0.7745 -3.37082,7.24806 -4.64999,10.56785 -1.62252,3.90333 -13.61992,25.5537 -13.76972,25.56736 0,0 -6.44092,-6.15185 -7.33861,-10.25959 -1.325,-6.06305 0.11865,-13.09501 3.52734,-18.28125 3.01998,-4.59483 8.24136,-8.19147 13.62827,-9.29328 z m -63.01698,164.63712 c 0.26076,0.27497 -0.11742,0.58606 -0.29102,1.02547 -0.1736,0.43941 -0.63364,1.21639 -0.81048,1.57216 -0.17684,0.35577 -0.16642,0.34956 -0.26563,0.55468 -0.0992,0.20512 -0.20516,0.4104 -0.33008,0.67579 -0.12492,0.26539 -0.27531,0.60125 -0.41601,0.91796 -0.1407,0.31671 -0.28367,0.66703 -0.42774,0.98243 -0.14407,0.3154 -0.30614,0.64298 -0.43554,0.91015 -0.1294,0.26717 -0.22388,0.45185 -0.33985,0.69336 -0.11597,0.24151 -0.23254,0.47867 -0.35547,0.75586 -0.12293,0.27719 -0.24647,0.59599 -0.3789,0.9082 -0.13243,0.31221 -0.2877,0.6693 -0.41602,0.96485 -0.12832,0.29555 -0.24095,0.56627 -0.35351,0.80859 -0.11256,0.24232 -0.22285,0.45514 -0.31836,0.64649 -0.0955,0.19135 -0.17119,0.34083 -0.25391,0.50195 -0.0827,0.16112 -0.13958,0.27101 -0.24219,0.46484 -0.10261,0.19383 -0.23484,0.40392 -0.375,0.69727 -0.14016,0.29335 -0.37541,0.82211 -0.44922,1.06836 -0.0738,0.24625 -0.0369,0.25025 -0.0703,0.37695 -0.0334,0.1267 -0.006,0.33943 -0.13088,0.38087 -0.12461,0.0414 -0.2332,-0.10967 -0.31843,-0.21675 -0.0852,-0.10708 -0.0764,-0.19504 -0.1582,-0.40625 -0.0818,-0.21121 -0.18438,-0.45107 -0.33198,-0.86133 -0.1476,-0.41026 -0.42791,-1.14829 -0.53711,-1.60546 -0.1092,-0.45717 -0.14372,-0.83664 -0.16411,-1.11524 -0.0204,-0.2786 -5.7e-4,-0.32878 0,-0.54883 5.7e-4,-0.22005 9.4e-4,-0.47362 0.004,-0.77148 0.003,-0.29786 0.003,-0.68905 0.0156,-1.01563 0.013,-0.32658 0.0299,-0.65318 0.0605,-0.94336 0.0306,-0.29018 0.0607,-0.54405 0.11719,-0.79687 0.0565,-0.25282 0.12544,-0.46608 0.2168,-0.7168 0.0914,-0.25072 0.22606,-0.54376 0.33594,-0.7832 0.10988,-0.23944 0.18635,-0.4237 0.32031,-0.6543 0.13396,-0.2306 0.33129,-0.53398 0.49023,-0.7207 0.15894,-0.18672 0.28092,-0.26563 0.43555,-0.41211 0.15463,-0.14648 0.34663,-0.3337 0.49219,-0.4668 0.14556,-0.1331 0.17773,-0.18229 0.3789,-0.33398 0.20117,-0.15169 0.57178,-0.3806 0.84766,-0.54297 0.27588,-0.16237 0.58043,-0.31245 0.80469,-0.43359 0.22426,-0.12114 0.347,-0.18783 0.54101,-0.29297 0.19401,-0.10514 0.4381,-0.24344 0.62305,-0.33789 0.18495,-0.0944 0.26577,-0.12303 0.48438,-0.23242 0.21861,-0.10939 0.48985,-0.30685 0.82422,-0.42966 0.33437,-0.12281 0.91696,-0.54261 1.17772,-0.26764 z"
     sodipodi:nodetypes="zzzzzzzzazzzzzzzzzzaaaaazzzzzzzzzzzzzzzzzzzsaaazzzaazzzzzzzzzzzzzzzzzzzzzzzzzzzzzzzzzzzzzzzzzzzzzzzzzzzzzzzzzzzzzzzzzzzzzzzzzzzzzzzzzzzzaaazazzzzaaasaaaaaaazzzaasaaazzzzzzzzzzzzzzzzzzzzazzzzzzzzzzzzzzzzzzzzzzssaaasaaazzsaaazzzzzzzzzzzzzzzzzzzzzzzzzzzzzzzzzzzzzzzzzzzz" />
  <path
     d="m 0,0 h 233 l 1,39 c 2.76848,8.321298 2.76848,8.321298 7.75,13.9375 0.61359,0.524648 1.22719,1.049297 1.85937,1.589844 8.41965,5.186609 16.77631,4.930938 26.35157,4.90625 1.55645,0.0046 3.11289,0.0099 4.66934,0.01588 3.25288,0.0089 6.50552,0.0065 9.75839,-0.0034 4.14458,-0.01148 8.2883,0.0087 12.43276,0.03792 3.21218,0.01845 6.42416,0.01805 9.63638,0.01236 1.52685,-1.53e-4 3.05371,0.0058 4.5805,0.01829 9.65675,0.06785 18.44476,-0.244605 26.36403,-6.373991 0.50661,-0.623906 1.01321,-1.247813 1.53516,-1.890625 0.52465,-0.613594 1.0493,-1.227188 1.58984,-1.859375 C 349.8078,34.325269 345.53802,18.017337 346,0 h 233 c 0.12099,69.441621 0.12099,69.441621 0.14648,98.429687 0.006,6.635093 0.0119,13.270183 0.0183,19.905273 0.001,1.24739 0.001,1.24739 0.002,2.51998 0.0131,13.42327 0.0367,26.8465 0.0643,40.26974 0.0281,13.77715 0.0447,27.55428 0.0508,41.33145 0.004,8.5004 0.0171,17.0007 0.0415,25.50107 0.0159,5.83001 0.0206,11.65996 0.0168,17.48999 -0.002,3.36305 0.003,6.72576 0.0171,10.0888 0.0149,3.64949 0.0113,7.29852 0.003,10.94802 0.009,1.05838 0.0175,2.11676 0.0265,3.20721 -0.0421,6.93496 -0.72188,12.83088 -5.07865,18.51581 -0.92619,0.79471 -0.92619,0.79471 -1.87109,1.60547 -0.59941,0.5427 -1.19883,1.08539 -1.81641,1.64453 -6.89466,4.05871 -14.3607,4.98682 -22.22299,4.92329 -0.91659,0.005 -1.83317,0.009 -2.77754,0.0141 -3.05803,0.0119 -6.11561,0.003 -9.17365,-0.007 -2.21993,0.004 -4.43987,0.01 -6.6598,0.0163 -6.09025,0.0145 -12.18038,0.0102 -18.27065,0.003 -5.89673,-0.004 -11.79343,0.006 -17.69016,0.0149 -12.80251,0.0197 -25.60498,0.022 -38.4075,0.0168 -11.20439,-0.005 -22.40877,-0.004 -33.61317,0.002 -1.50365,7.5e-4 -3.0073,0.002 -4.51095,0.002 l -6.7978,0.003 c -21.06257,0.0107 -42.12515,0.0154 -63.18773,0.008 -0.79374,-2.9e-4 -1.58748,-5.9e-4 -2.40527,-9e-4 -6.44552,-0.002 -12.89103,-0.005 -19.33654,-0.008 -25.14283,-0.0101 -50.2856,-0.002 -75.42842,0.0215 -28.25699,0.0261 -56.51393,0.0389 -84.77092,0.0318 -3.01327,-7.1e-4 -6.02654,-10e-4 -9.03982,-0.002 -1.11289,-2.5e-4 -1.11289,-2.5e-4 -2.24826,-5.1e-4 -11.19573,-0.002 -22.39142,0.006 -33.58714,0.0188 -12.73294,0.0149 -25.4658,0.0158 -38.198744,-0.002 -6.496521,-0.009 -12.992875,-0.0106 -19.489387,0.005 -5.948162,0.0138 -11.896013,0.009 -17.844158,-0.0102 -2.150621,-0.004 -4.301268,-8.1e-4 -6.451868,0.01 -23.021257,0.10358 -23.021257,0.10358 -32.6844043,-6.77829 C 3.4395322,286.1587 4.5966618,284.56318 3.8125,279.1875 3.409388,276.42404 1.5969612,269.98357 1.2427604,266.72394 0.98666786,264.36718 0.16237296,255.37076 0.16237296,255.37076 c -1.09238472,-5.25961 -0.949655,-16.6943 -0.38942339,-30.81754 0.0968789,-2.44228 -0.002013,-4.88841 -8.8501e-4,-7.33261 0.002428,-5.2612 0.005215,-10.52238 0.0164757,-15.78358 0.0162697,-7.60676 0.0214645,-15.2135 0.023976,-22.82027 0.004375,-12.34216 0.017678,-24.68429 0.0366052,-37.02643 0.0183644,-11.98763 0.0324952,-23.97525 0.0410156,-35.96289 l 0.001624,-2.26283 c 0.004626,-6.495726 0.0089314,-12.991458 0.0132054,-19.48719 C -0.07622199,55.918255 -0.03637884,27.95916 0,0 Z"
     fill="#fef7e3"
     transform="translate(217,326)"
     id="path2"
     style="display:inline"
     sodipodi:nodetypes="ccccccccccccccccscccccscccccccccccccsccscccssccsccccsscsascssscc" />
  <path
     d="m 428.75683,59.955796 c 1.00483,-0.0057 1.00483,-0.0057 2.02996,-0.01159 2.22589,-0.01025 4.45151,-0.0064 6.67742,-0.0024 1.60391,-0.0044 3.20782,-0.0095 4.81173,-0.01549 4.34546,-0.01336 8.69082,-0.01397 13.03629,-0.01144 3.63756,0.0011 7.2751,-0.0038 10.91266,-0.0086 8.59166,-0.01109 17.18329,-0.01154 25.77496,-0.0055 8.83461,0.006 17.66907,-0.0062 26.50365,-0.02757 7.60626,-0.01768 15.21246,-0.02361 22.81873,-0.02036 4.53317,0.0018 9.06624,-7.35e-4 13.59939,-0.01471 4.27072,-0.01268 8.54119,-0.01054 12.8119,0.0024 1.5567,0.0023 3.11341,-2.93e-4 4.67008,-0.0086 19.76806,-0.09806 36.68498,4.20757 51.26471,18.114025 16.21659,16.241538 21.31676,33.978419 21.49097,56.340829 0.074,5.53391 0.13482,11.06796 0.18684,16.60211 0.0403,4.09625 0.0913,8.19237 0.1413,12.28851 0.0963,8.01294 0.17988,16.02593 0.25781,24.03906 h 23 l -0.375,-6.0625 c -0.006,-5.6613 0.61787,-8.62983 4.57422,-12.66797 4.08143,-2.87736 7.84022,-3.52223 12.76514,-3.54419 1.17827,-0.01 2.35655,-0.0191 3.57052,-0.0289 1.897,10e-4 1.897,10e-4 3.83231,0.003 1.30809,-0.004 2.61617,-0.009 3.9639,-0.013 2.76549,-0.007 5.53086,-0.007 8.29635,-0.002 3.52941,0.006 7.0583,-0.0111 10.58762,-0.0344 3.38406,-0.0183 6.76802,-0.0145 10.15213,-0.0133 1.26061,-0.009 2.52123,-0.0184 3.82004,-0.0279 7.63686,0.0402 13.17015,0.32372 19.18777,5.39119 2.90708,3.57795 2.73524,6.74783 2.6875,11.1875 -0.009,1.08668 -0.018,2.17336 -0.0273,3.29297 -0.0116,0.83145 -0.0232,1.66289 -0.0352,2.51953 1.14364,-0.0157 2.28728,-0.0314 3.46558,-0.0476 4.30331,-0.0549 8.60659,-0.089 12.91016,-0.11719 1.85129,-0.0149 3.70254,-0.0353 5.55371,-0.0615 21.55795,-0.29723 36.91299,3.21385 53.19555,18.17945 4.37654,4.47911 7.39757,9.3965 10.25,14.92187 0.33403,0.63551 0.66806,1.27102 1.01221,1.92578 5.18979,10.61997 4.93757,22.22374 4.94873,33.77735 0.006,1.58177 0.0132,3.16353 0.0202,4.7453 0.0119,3.29456 0.0157,6.58902 0.0145,9.8836 -2.1e-4,4.20864 0.0272,8.41661 0.0615,12.62508 0.0223,3.25836 0.0263,6.51655 0.0252,9.77497 0.002,1.55167 0.0111,3.10334 0.0267,4.65492 0.1363,15.00306 0.1363,15.00306 -4.48405,20.738 -4.48772,4.15936 -7.65434,5.13348 -13.6875,5.0625 -0.99386,-0.009 -1.98773,-0.018 -3.01172,-0.0273 -1.13888,-0.0174 -1.13888,-0.0174 -2.30078,-0.0352 7.6e-4,0.58331 0.002,1.16661 0.002,1.76759 0.0448,34.60507 0.0791,69.21014 0.0998,103.81523 0.003,4.15916 0.005,8.31833 0.008,12.47749 7.8e-4,1.24197 7.8e-4,1.24197 0.002,2.50903 0.009,13.38987 0.0245,26.77972 0.0429,40.16958 0.0187,13.74892 0.0298,27.49784 0.0339,41.24677 0.003,8.47733 0.0114,16.95461 0.0277,25.43193 0.0106,5.82069 0.0138,11.64136 0.0112,17.46207 -10e-4,3.35348 0.002,6.7068 0.0114,10.06028 0.01,3.64765 0.008,7.29511 0.002,10.94277 0.009,1.56572 0.009,1.56572 0.0177,3.16308 -0.0637,15.90537 -2.74496,27.96219 -13.86754,39.69246 -11.55348,10.9305 -24.41669,12.43204 -39.71636,12.38756 -0.88677,0.001 -1.77354,0.003 -2.68718,0.004 -2.95661,0.004 -5.91317,1.8e-4 -8.86978,-0.003 -2.14737,10e-4 -4.29474,0.003 -6.44211,0.005 -5.89024,0.004 -11.78046,0.002 -17.6707,-9.8e-4 -6.35757,-0.002 -12.71515,10e-4 -19.07272,0.004 -11.73501,0.004 -23.47001,0.004 -35.20502,10e-4 -10.85144,-0.003 -21.70288,-0.003 -32.55432,-0.002 -0.7206,7e-5 -1.44119,1.5e-4 -2.18363,2.3e-4 -2.92553,3.1e-4 -5.85106,6.3e-4 -8.77658,9.6e-4 -27.44611,0.003 -54.89222,2.9e-4 -82.33833,-0.005 -24.33736,-0.005 -48.67472,-0.004 -73.01208,4.6e-4 -27.37266,0.005 -54.74532,0.007 -82.11798,0.004 -2.92508,-3.2e-4 -5.85015,-6.3e-4 -8.77522,-9.4e-4 -0.72017,-8e-5 -1.44034,-1.6e-4 -2.18234,-2.4e-4 -10.82849,-0.001 -21.65699,1.8e-4 -32.48548,0.003 -12.33723,0.003 -24.67446,0.002 -37.01169,-0.003 -6.28567,-0.003 -12.57134,-0.004 -18.85701,-3.5e-4 -14.47774,0.007 -28.95481,-0.008 -43.4321,-0.13267 -0.76342,-0.006 -1.52683,-0.0128 -2.31339,-0.0194 -4.39278,-0.0412 -8.78268,-0.12333 -13.17428,-0.2387 -1.43198,-0.0204 -1.43198,-0.0204 -2.89288,-0.0412 -10.33427,-0.37478 -36.50818,-11.71692 -33.51466,-12.0727 2.99352,-0.35579 17.22224,-19.10253 19.41236,-29.72702 3.81929,3.65323 7.71021,8.02223 11.92873,11.46249 4.18981,3.41685 8.70278,5.91756 13.78967,5.891 0.91343,0.003 1.82685,0.006 2.76796,0.01 3.06524,0.008 6.13029,0.002 9.19554,-0.003 2.21806,0.003 4.43612,0.007 6.65418,0.0116 6.09894,0.0103 12.19782,0.008 18.29677,0.004 5.90087,-0.002 11.80172,0.005 17.70259,0.0118 13.56032,0.0152 27.12061,0.0169 40.68094,0.0145 10.47172,-0.002 20.94343,-8e-5 31.41515,0.004 1.50435,6.1e-4 3.0087,10e-4 4.51306,0.002 2.26691,9e-4 4.53382,0.002 6.80073,0.003 21.07793,0.008 42.15586,0.0128 63.2338,0.009 0.79466,-1.5e-4 1.58933,-3.1e-4 2.40807,-4.7e-4 4.02769,-8.1e-4 8.05538,-0.002 12.08307,-0.003 0.79991,-1.7e-4 1.59982,-3.4e-4 2.42398,-5.1e-4 1.61762,-3.5e-4 3.23524,-7e-4 4.85285,-10e-4 25.16918,-0.005 50.33832,0.003 75.50749,0.021 28.27746,0.0207 56.55489,0.0314 84.83235,0.0274 3.01527,-4e-4 6.03053,-7.6e-4 9.0458,-10e-4 0.74244,-9e-5 1.48487,-1.8e-4 2.2498,-2.7e-4 11.2072,-0.001 22.41438,0.005 33.62157,0.0161 12.74658,0.012 25.4931,0.0136 38.23968,10e-4 6.50445,-0.006 13.00881,-0.007 19.51325,0.005 5.95435,0.0108 11.90853,0.008 17.86287,-0.006 2.15406,-0.003 4.30813,-2.5e-4 6.46218,0.008 2.92944,0.0101 5.85828,0.002 8.7877,-0.0113 1.2523,0.011 1.2523,0.011 2.5299,0.0222 8.4653,-0.0776 16.02953,-1.92714 22.61052,-7.4086 4.86918,-6.57404 4.9073,-13.66143 4.87138,-21.50427 0.007,-1.14206 0.0133,-2.28412 0.0201,-3.4608 0.0186,-3.81707 0.016,-7.63383 0.0135,-11.45094 0.007,-2.74008 0.0192,-5.48013 0.0309,-8.22019 0.0228,-5.89413 0.0347,-11.78821 0.0391,-17.68238 0.006,-8.52189 0.0294,-17.04368 0.0563,-25.56552 0.0432,-13.82735 0.0732,-27.6547 0.0948,-41.48211 0.021,-13.42906 0.0483,-26.85808 0.084,-40.28711 0.002,-0.83672 0.004,-1.67344 0.007,-2.53552 0.0174,-6.54407 0.0351,-13.08815 0.0529,-19.63223 0.0873,-32.05571 0.14282,-64.11141 0.20281,-96.16721 h -233 c 0,0 0.22307,36.66236 0,39 -1.52275,15.95775 -8.08504,15.22585 -15.23242,19.16211 -6.43864,3.54593 -14.43059,2.41542 -21.92383,2.36914 -1.55359,0.003 -3.10718,0.007 -4.66076,0.0116 -3.24101,0.006 -6.48158,-0.003 -9.72254,-0.0214 -8.56848,-0.0473 -10.36032,0.052 -21.99614,0.0138 -1.52125,-0.003 -3.05606,0.21267 -4.56375,0.01 -9.51943,-1.27962 -21.45909,-0.43421 -27.77556,-7.67018 -11.69529,-13.39781 -7.125,-32.1653 -7.125,-52.875 h -233 l -2.36704,241.89888 c -2,-2 1.94463,4.98283 0.66986,2.8726 -4.43204,-7.33668 -8.2531,-12.08357 -16.47406,-15.39866 -2.41256,-1.95662 -5.82876,-5.37282 -6.45517,-9.23352 -0.0263,-1.66249 -0.0246,-3.32556 -0.002,-4.9881 -0.007,-0.91572 -0.0142,-1.83143 -0.0215,-2.7749 -0.0177,-3.08183 5.6e-4,-6.16241 0.0186,-9.24422 -0.005,-2.20419 -0.0124,-4.40837 -0.0217,-6.61255 -0.0186,-5.99825 -0.006,-11.99607 0.0141,-17.9943 0.0164,-6.27301 0.008,-12.54599 0.002,-18.819 -0.005,-10.54123 0.0113,-21.08229 0.0393,-31.62346 0.0288,-10.83797 0.0359,-21.67568 0.0205,-32.51368 -0.0186,-13.06202 -0.0168,-26.12391 0.002,-39.18593 0.007,-4.98668 0.006,-9.97326 -0.002,-14.95993 -0.008,-5.87778 0.004,-11.7552 0.0319,-17.63292 0.87765,-11.94405 -1.04523,-23.32712 4.9997,-30.66282 1.87902,-2.08561 4.99799,-2.94063 7.79411,-3.18999 2.57282,-0.22944 4.99515,1.65909 7.57788,1.61988 18.93563,-0.28746 40.13311,-5.17779 55.17212,-13.55738 l 3,-2 c 3.16466,-0.24609 3.16466,-0.24609 7.1563,-0.24051 0.73352,-0.002 1.46704,-0.003 2.22278,-0.005 2.46448,-0.003 4.92869,0.008 7.39314,0.0186 1.76397,5.7e-4 3.52793,2.5e-4 5.2919,-8.8e-4 4.79517,-5.8e-4 9.59023,0.0112 14.38537,0.0251 5.00884,0.0125 10.01769,0.0137 15.02654,0.0161 9.48786,0.006 18.97568,0.0226 28.46351,0.0427 10.80035,0.0223 21.60069,0.0333 32.40105,0.0434 22.21983,0.0209 44.43962,0.0561 66.65941,0.10064 -0.0175,-1.26312 -0.035,-2.52624 -0.053,-3.82763 -0.0868,-6.27119 2.57373,-11.36333 6.69751,-16.03565 5.9447,-5.40792 11.88645,-7.50436 19.87623,-7.55664 0.71647,-0.008 1.43295,-0.0169 2.17114,-0.0257 2.34898,-0.0232 4.6973,-0.0244 7.04638,-0.0232 1.64756,-0.007 3.29512,-0.0148 4.94268,-0.0231 3.44715,-0.0134 6.89408,-0.015 10.34126,-0.009 4.39471,0.006 8.7883,-0.0247 13.1828,-0.0651 3.40177,-0.026 6.80327,-0.0288 10.20513,-0.0251 1.61897,-0.002 3.23795,-0.0112 4.85682,-0.0291 10.01529,-0.0986 18.85376,0.20647 26.62459,7.36216 5.53116,5.84327 7.10844,11.18066 7.10844,19.25818 h 256 c 3.73597,-38.70115 3.73597,-38.70115 -10.75,-76.77343 -7.86648,-7.28265 -15.11485,-10.38054 -25.78562,-10.36523 -0.76607,-0.003 -1.53215,-0.006 -2.32143,-0.009 -2.5819,-0.008 -5.16376,-0.01 -7.74567,-0.0109 l -5.59121,-0.015 c -5.13307,-0.0136 -10.26613,-0.021 -15.39922,-0.0274 -5.531,-0.008 -11.06199,-0.0217 -16.59299,-0.0347 -9.58671,-0.0218 -19.17342,-0.0399 -28.76014,-0.0556 -13.86088,-0.0227 -27.72175,-0.0508 -41.58262,-0.0803 -22.48694,-0.0477 -44.97389,-0.091 -67.46084,-0.13144 -21.84734,-0.0393 -43.69467,-0.0808 -65.542,-0.125 -1.00993,-0.002 -1.00993,-0.002 -2.04028,-0.004 -6.76141,-0.0137 -13.52283,-0.0274 -20.28424,-0.0412 -56.71457,-0.11541 -113.42915,-0.22367 -170.14374,-0.32702 2.26828,-3.90252 4.7117,-7.02117 7.8125,-10.3125 3.12206,-3.32479 5.78527,-6.50664 8.1875,-10.375 1.79976,-2.55399 2.47025,-3.21247 5.58594,-3.80078 2.52499,-0.0106 4.91621,0.13286 7.41406,0.48828 l -0.72461,-5.12989 c -0.4739,-4.81803 0.51153,-5.33033 3.49414,-9.1162 0.67418,-0.72317 1.34836,-1.44633 2.04297,-2.19141 l 2.16407,-2.375 c 0.66773,-0.72187 1.33546,-1.44375 2.02343,-2.1875 7.81542,-8.54243 13.76858,-20.5535 13.28516,-32.38672 -1.41002,-12.92198 -4.41743,-23.02655 -13.28516,-32.61328 l -2,-1 c 3.22212,-13.861162 14.32853,-23.580432 25.78907,-31.093751 8.86778,-5.264574 17.77312,-9.148953 28.22255,-9.166947 z m 15.98838,75.260694 v 52 h 123 v -52 z"
     fill="#192f33"
     id="path3"
     style="display:inline"
     sodipodi:nodetypes="ccccccccccccccccccccccccccccccccccccccccccccccccccsccccccccccccccccssscssscccccccczcscccccccsccssssccsscccscccccccccccsccsccsaccccaacccsccccccccsscccaaacccccccccccscccccccccccccccccccscssccccccccccccccccccccccc" />
  <path
     d="m 0,0 2.3037386,-0.01062447 c 2.5682204,-0.0093641 5.1362166,-0.0043778 7.7044464,4.6784e-4 1.851625,-0.0037338 3.703247,-0.0083342 5.554868,-0.01373065 5.104642,-0.01227979 10.209218,-0.01196368 15.313872,-0.0096112 5.499177,4.0693e-4 10.998334,-0.01061924 16.497502,-0.02011513 10.781376,-0.01663944 21.56273,-0.02211092 32.344118,-0.02322476 8.763196,-9.4931e-4 17.526384,-0.0050537 26.289575,-0.01140125 20.78976,-0.01475276 41.57951,-0.02704881 62.36927,-0.02600288 l 2.01587,9.441e-5 c 3.37179,1.6622e-4 6.74359,3.643e-4 10.11538,5.6942e-4 l 2.02929,1.2088e-4 c 1.35422,8.087e-5 2.70845,1.6447e-4 4.06267,2.5078e-4 21.06004,0.001225 42.12001,-0.0137755 63.18003,-0.0411451 23.65555,-0.03073 47.31107,-0.0479065 70.96664,-0.0460735 12.52667,6.6432e-4 25.05328,-0.004846 37.57993,-0.0263561 10.66794,-0.0182004 21.33576,-0.0225686 32.0037,-0.008981 5.44323,0.006536 10.88625,0.006624 16.32946,-0.0107065 4.98495,-0.015708 9.96953,-0.0128901 14.95448,0.004568 1.80155,0.003075 3.60314,-5.8105e-4 5.40467,-0.0117202 14.04101,-0.0810537 24.41784,1.87903081 35.17396,11.57339041 18.25037,18.695497 9.4375,59.453815 9.4375,76.9375 h -256 l -2,-10 c -2.94503,-6.649763 -7.48978,-10.890641 -14,-14 -3.52192,-1.173974 -6.34864,-1.155964 -10.06665,-1.192871 -0.71589,-0.0082 -1.43178,-0.01635 -2.16937,-0.02478 -2.37054,-0.02482 -4.74101,-0.04137 -7.11163,-0.05579 -1.21832,-0.008 -1.21832,-0.008 -2.46124,-0.01613 -4.30385,-0.02672 -8.60766,-0.0461 -12.91157,-0.06053 -3.54909,-0.01331 -7.0976,-0.0411 -10.64648,-0.08203 -4.2959,-0.04954 -8.59128,-0.07412 -12.88745,-0.0812 -1.63016,-0.0067 -3.26031,-0.02181 -4.89031,-0.04589 -9.0418,-0.125882 -17.31737,-0.190537 -24.8553,5.559216 -5.85042,6.20718 -7.78965,11.527543 -9,20 H -71.369027 c 4.270988,-4.270988 8.579528,-7.967938 13.28125,-11.71875 4.892684,-4.105356 9.086898,-8.739605 13.21875,-13.59375 l 1.553467,-1.821289 c 5.614202,-6.611736 11.141767,-13.292006 16.53247,-20.087403 1.251745,-1.574622 2.519263,-3.136678 3.789063,-4.696777 3.624625,-4.713474 5.412532,-7.971431 4.957031,-13.988281 -0.307687,-1.94024 -0.721818,-3.862783 -1.144531,-5.78125 -0.203815,-3.600727 -0.0059,-4.083222 2.125,-6.7500001 2.6875,-2.5625 2.6875,-2.5625 4.6875,-2.5625 l 0.8125,-2.375 C -9.1357494,-0.46892392 -5.1555689,-0.02979781 0,0 Z"
     fill="#fef7e3"
     transform="translate(347.36903,212.74273)"
     id="path4"
     style="display:inline"
     sodipodi:nodetypes="ccccccscsssscscsccccccccccccccscccccccccccccccc" />
  <path
     d="m 0,0 2.6200714,-0.02911377 2.8376923,-0.01287842 2.9149627,-0.01727295 c 2.0385076,-0.0094572 4.0770296,-0.01598682 6.1155546,-0.01983642 3.114449,-0.009694 6.228236,-0.040706 9.34253,-0.07226563 1.979813,-0.006531 3.959632,-0.0117812 5.939453,-0.015625 l 2.81929,-0.0374145 c 4.875248,0.0167389 8.316246,0.10433121 12.223678,3.36553959 2.189718,3.2845761 2.245839,4.217598 2.227051,8.0222171 l -4.58e-4,3.093429 c -0.01032,1.100079 -0.02065,2.200158 -0.03128,3.333573 -0.0028,1.127753 -0.0057,2.255506 -0.0086,3.417434 -0.01121,3.607056 -0.03631,7.213866 -0.06174,10.820847 -0.01003,2.443356 -0.01915,4.886715 -0.02734,7.330078 -0.02207,5.994225 -0.05555,11.988306 -0.09766,17.982422 0.960536,-0.01 0.960536,-0.01 1.940476,-0.02019 6.66717,-0.06639 13.334246,-0.111628 20.001663,-0.144607 2.487995,-0.01508 4.975963,-0.03555 7.463867,-0.06152 3.576971,-0.03641 7.153591,-0.05341 10.730713,-0.06665 1.11163,-0.01548 2.22326,-0.03097 3.368576,-0.04692 l 3.153641,-6.86e-4 c 1.369007,-0.01 1.369007,-0.01 2.765671,-0.02019 3.190257,0.446894 5.010738,1.425716 7.575388,3.360764 2.03102,2.949446 2.26274,5.414931 2.3064,8.94873 0.016,0.98137 0.032,1.962739 0.0485,2.973847 0.005,1.054221 0.0107,2.108443 0.0162,3.19461 0.009,1.089913 0.0181,2.179825 0.0274,3.302765 0.0145,2.304812 0.0234,4.609666 0.0271,6.91452 0.0119,3.520728 0.0611,7.039702 0.11157,10.560059 0.009,2.240877 0.0167,4.481765 0.0215,6.722655 0.0195,1.05017 0.0391,2.10035 0.0592,3.18234 -0.0503,8.16453 -0.0503,8.16453 -2.9652,11.8494 -3.59327,3.18483 -6.044768,3.47603 -10.674801,3.4646 -1.020832,-8e-5 -2.041664,-1.5e-4 -3.09343,-2.3e-4 -1.100079,-0.005 -2.200158,-0.0103 -3.333572,-0.0156 -1.127754,-0.001 -2.255507,-0.003 -3.417435,-0.004 -3.606976,-0.006 -7.21389,-0.0182 -10.820847,-0.0309 -2.443358,-0.005 -4.886718,-0.01 -7.330078,-0.0137 -5.994161,-0.011 -11.988287,-0.0278 -17.982422,-0.0488 0.0089,0.6153 0.01777,1.2306 0.02692,1.86455 0.08854,6.40761 0.148844,12.81504 0.19281,19.2231 0.02011,2.39102 0.0474,4.78199 0.08203,7.17285 0.04855,3.43803 0.07122,6.87541 0.08887,10.31372 0.02065,1.06788 0.04129,2.13577 0.06256,3.23601 0.0022,7.4341 0.0022,7.4341 -2.3526,11.34138 -2.948736,2.59471 -4.545451,2.977 -8.37915,3.02539 -0.884644,0.0128 -1.769289,0.0257 -2.68074,0.0389 -0.958313,0.007 -1.916625,0.0148 -2.903977,0.0224 -1.4762,0.0121 -1.4762,0.0121 -2.982223,0.0245 -2.085579,0.0139 -4.171181,0.0246 -6.256791,0.0324 -3.187042,0.0172 -6.373046,0.0611 -9.559814,0.10522 -2.025383,0.0101 -4.0507748,0.0187 -6.0761718,0.0254 -1.4283593,0.0263 -1.4283593,0.0263 -2.8855744,0.0531 -4.3197843,-0.0141 -6.7108176,-0.0679 -10.4550018,-2.38045 -2.851655,-3.11475 -3.045033,-4.78999 -3.034668,-8.91528 l 2.29e-4,-3.03299 c 0.0052,-1.08337 0.01032,-2.16673 0.01564,-3.28293 0.0014,-1.10697 0.0028,-2.21394 0.0043,-3.35446 0.0056,-3.54594 0.01816,-7.09181 0.03087,-10.63773 0.005,-2.39974 0.0096,-4.79948 0.01367,-7.19922 0.01104,-5.89194 0.02779,-11.78386 0.04883,-17.67578 -0.638136,0.0111 -1.276272,0.0222 -1.933746,0.0336 -6.651011,0.11075 -13.301759,0.18609 -19.953461,0.24101 -2.481228,0.0251 -4.962382,0.0592 -7.443359,0.10254 -3.569684,0.0608 -7.138389,0.089 -10.708496,0.11108 -1.106469,0.0258 -2.212938,0.0516 -3.352936,0.0782 -8.608831,0.003 -8.608831,0.003 -12.29306,-2.972 -3.027975,-3.39362 -3.442075,-4.89098 -3.507813,-9.31617 -0.01606,-0.98152 -0.03213,-1.96304 -0.04868,-2.9743 -0.04445,-4.49586 -0.08552,-8.991578 -0.108551,-13.48761 -0.01655,-2.370543 -0.04383,-4.741035 -0.08203,-7.111328 -0.0548,-3.417581 -0.07665,-6.833992 -0.09131,-10.251953 -0.02267,-1.056447 -0.04534,-2.112894 -0.06869,-3.201355 0.02357,-8.220301 0.02357,-8.220301 2.999847,-11.905091 3.497141,-3.165804 4.996037,-3.471308 9.592774,-3.460205 l 3.154327,2.29e-4 c 1.127114,0.0052 2.254228,0.01032 3.415497,0.01564 1.151364,0.0014 2.302729,0.0028 3.488983,0.0043 3.688594,0.0056 7.377128,0.01817 11.065704,0.03087 2.496093,0.005 4.992187,0.0096 7.488282,0.01367 6.128927,0.01104 12.257818,0.02779 18.386718,0.04883 -0.0089,-0.627829 -0.01776,-1.255658 -0.02692,-1.902512 -0.08853,-6.537367 -0.148841,-13.074565 -0.19281,-19.612381 -0.02011,-2.439523 -0.0474,-4.878999 -0.08203,-7.318359 -0.04855,-3.507527 -0.07122,-7.014416 -0.08887,-10.522217 -0.02065,-1.089756 -0.04129,-2.179513 -0.06256,-3.302292 -0.0022,-7.5832856 -0.0022,-7.5832856 2.3526005,-11.5075224 C -5.3623747,0.44108254 -3.7900033,0.0339549 0,0 Z"
     fill="#35a7d8"
     id="path5"
     style="display:inline"
     transform="translate(488.18677,407.83887)"
     sodipodi:nodetypes="ccccccccccccccccccccccccccccccccccccccccccccccccccccccccccccccccccccccccccccccccccccccccc" />
  <path
     d="m 487.74031,405.20234 c 0.86462,-0.01 1.72925,-0.0192 2.62007,-0.0291 0.93644,-0.004 1.87288,-0.008 2.83769,-0.0129 0.96194,-0.006 1.92388,-0.0114 2.91497,-0.0173 2.0385,-0.009 4.07703,-0.016 6.11555,-0.0198 3.11445,-0.01 6.22824,-0.0407 9.34253,-0.0723 1.97981,-0.007 3.95963,-0.0118 5.93945,-0.0156 0.93037,-0.0123 1.86073,-0.0247 2.81929,-0.0374 4.87525,0.0167 8.31625,0.10433 12.22368,3.36554 2.18972,3.28458 2.24584,4.2176 2.22705,8.02222 -1.5e-4,1.02083 -3e-4,2.04166 -4.5e-4,3.09343 -0.0103,1.10008 -0.0207,2.20016 -0.0313,3.33357 -0.003,1.12776 -0.006,2.25551 -0.009,3.41744 -0.0112,3.60705 -0.0363,7.21386 -0.0617,10.82084 -0.01,2.44336 -0.0191,4.88672 -0.0273,7.33008 -0.0221,5.99423 -0.0556,11.98831 -0.0977,17.98242 l 1.94048,-0.0202 c 6.66717,-0.0664 13.33425,-0.11163 20.00166,-0.1446 2.488,-0.0151 4.97597,-0.0356 7.46387,-0.0615 3.57697,-0.0364 7.15359,-0.0534 10.73071,-0.0666 1.11163,-0.0155 2.22326,-0.031 3.36858,-0.0469 1.0407,-2.3e-4 2.0814,-4.6e-4 3.15364,-6.9e-4 l 2.76567,-0.0202 c 3.19026,0.44689 5.01074,1.42572 7.57539,3.36076 2.03102,2.94945 2.26274,5.41494 2.3064,8.94873 0.016,0.98137 0.032,1.96274 0.0485,2.97385 0.005,1.05422 0.0107,2.10844 0.0162,3.19461 0.009,1.08991 0.0181,2.17983 0.0274,3.30277 0.0145,2.30481 0.0234,4.60966 0.0271,6.91452 0.0119,3.52072 0.0611,7.0397 0.11157,10.56005 0.009,2.24088 0.0167,4.48177 0.0215,6.72266 0.0195,1.05017 0.0391,2.10035 0.0592,3.18234 -0.0503,8.16453 -0.0503,8.16453 -2.9652,11.8494 -3.59327,3.18483 -6.04477,3.47603 -10.6748,3.4646 -1.02083,-8e-5 -2.04167,-1.5e-4 -3.09343,-2.3e-4 -1.10008,-0.005 -2.20016,-0.0103 -3.33357,-0.0156 -1.12776,-10e-4 -2.25551,-0.003 -3.41744,-0.004 -3.60697,-0.006 -7.21389,-0.0182 -10.82084,-0.0309 -2.44336,-0.005 -4.88672,-0.01 -7.33008,-0.0137 -5.99416,-0.011 -11.98829,-0.0278 -17.98242,-0.0488 0.009,0.6153 0.0178,1.2306 0.0269,1.86455 0.0885,6.40761 0.14884,12.81504 0.19281,19.2231 0.0201,2.39102 0.0474,4.78199 0.082,7.17285 0.0486,3.43803 0.0712,6.87541 0.0889,10.31372 0.0207,1.06788 0.0413,2.13577 0.0625,3.23601 0.002,7.4341 0.002,7.4341 -2.35259,11.34138 -2.94874,2.59471 -4.54546,2.977 -8.37915,3.02539 -0.88465,0.0128 -1.76929,0.0257 -2.68074,0.0389 -0.95832,0.007 -1.91663,0.0148 -2.90398,0.0224 -1.4762,0.0121 -1.4762,0.0121 -2.98222,0.0245 -2.08558,0.0139 -4.17119,0.0246 -6.2568,0.0324 -3.18704,0.0172 -6.37304,0.0611 -9.55981,0.10522 -2.02538,0.0101 -4.05077,0.0187 -6.07617,0.0254 -1.42836,0.0263 -1.42836,0.0263 -2.88558,0.0531 -4.31978,-0.0141 -6.71081,-0.0679 -10.455,-2.38045 -2.85165,-3.11475 -3.04503,-4.78999 -3.03467,-8.91528 8e-5,-1.00089 1.5e-4,-2.00177 2.3e-4,-3.03299 0.005,-1.08337 0.0103,-2.16673 0.0156,-3.28293 10e-4,-1.10697 0.003,-2.21394 0.004,-3.35446 0.006,-3.54594 0.0182,-7.09181 0.0309,-10.63773 0.005,-2.39974 0.01,-4.79948 0.0137,-7.19922 0.011,-5.89194 0.0278,-11.78386 0.0488,-17.67578 -0.63813,0.0111 -1.27627,0.0222 -1.93374,0.0336 -6.65101,0.11075 -13.30176,0.18609 -19.95346,0.24101 -2.48123,0.0251 -4.96239,0.0592 -7.44336,0.10254 -3.56969,0.0608 -7.13839,0.089 -10.7085,0.11108 -1.10647,0.0258 -2.21294,0.0516 -3.35293,0.0782 -8.60884,0.003 -8.60884,0.003 -12.29306,-2.972 -3.02798,-3.39362 -3.44208,-4.89098 -3.50782,-9.31617 -0.0161,-0.98152 -0.0321,-1.96304 -0.0487,-2.9743 -0.0444,-4.49586 -0.0855,-8.99158 -0.10855,-13.48761 -0.0165,-2.37054 -0.0438,-4.74104 -0.082,-7.11133 -0.0548,-3.41758 -0.0767,-6.83399 -0.0913,-10.25195 -0.0227,-1.05645 -0.0453,-2.1129 -0.0687,-3.20136 0.0236,-8.2203 0.0236,-8.2203 2.99985,-11.90509 3.49714,-3.1658 4.99603,-3.47131 9.59277,-3.4602 1.56139,1.1e-4 1.56139,1.1e-4 3.15433,2.3e-4 1.12711,0.005 2.25423,0.0103 3.4155,0.0156 1.15136,10e-4 2.30272,0.003 3.48898,0.004 3.68859,0.006 7.37713,0.0182 11.0657,0.0309 2.4961,0.005 4.99219,0.01 7.48829,0.0137 6.12892,0.011 12.25781,0.0278 18.38671,0.0488 -0.009,-0.62783 -0.0178,-1.25566 -0.0269,-1.90252 -0.0885,-6.53736 -0.14884,-13.07456 -0.19281,-19.61238 -0.0201,-2.43952 -0.0474,-4.879 -0.082,-7.31836 -0.0485,-3.50752 -0.0712,-7.01441 -0.0889,-10.52221 -0.0206,-1.08976 -0.0413,-2.17952 -0.0626,-3.30229 -0.002,-7.58329 -0.002,-7.58329 2.3526,-11.50753 2.92492,-2.5551 4.49729,-2.96223 8.28729,-2.99618 z"
     fill="#35a7d8"
     id="path5-9"
     style="display:inline;fill:none;stroke:#000000;stroke-width:6;stroke-dasharray:none;stroke-opacity:1"
     sodipodi:nodetypes="cccccccccccccccccccccccccccccccccccccccccccccccccccccccccccccccccccccccccccccccccccccccccc" />
  <path
     d="m 0,0 1.9743891,-0.01327956 c 2.1876222,-0.01337539 4.375204,-0.01956415 6.5628576,-0.02569139 1.5671613,-0.0079023 3.1343203,-0.01617137 4.7014773,-0.02478027 5.152957,-0.02621788 10.305921,-0.04153332 15.458923,-0.05578613 1.776276,-0.005361 3.552553,-0.0107384 5.328829,-0.0161324 7.393778,-0.0216337 14.787554,-0.0403667 22.181355,-0.0516224 10.579904,-0.0162134 21.159438,-0.0493218 31.739203,-0.10640085 7.446471,-0.0387965 14.892846,-0.0582436 22.339416,-0.0635197 4.44275,-0.003642 8.8851,-0.0155375 13.32774,-0.0481027 4.18704,-0.0302499 8.37345,-0.0363328 12.56057,-0.0246162 1.52853,2.1937e-4 3.05709,-0.007971 4.58551,-0.0256538 11.91285,-0.13020496 22.44247,1.9901454 31.90613,9.6954232 7.27973,7.1772062 12.22302,15.0761022 14.9414,24.9140622 0.1762,0.578447 0.35239,1.156893 0.53392,1.752869 0.60076,2.896449 0.58543,5.617329 0.57961,8.576233 -8e-5,1.281026 -1.5e-4,2.562052 -2.3e-4,3.881897 -0.005,1.393209 -0.0103,2.786418 -0.0156,4.179626 -0.002,1.429179 -0.003,2.858358 -0.004,4.287537 -0.004,3.75484 -0.0136,7.509641 -0.0247,11.264465 -0.012,4.508791 -0.0166,9.017595 -0.0225,13.526398 -0.01,6.843685 -0.0289,13.687285 -0.0462,20.530975 h -28 c -0.0387,-6.01541 -0.0387,-6.01541 -0.0781,-12.152344 -0.0317,-3.219089 -0.0674,-6.438081 -0.10567,-9.657096 -0.0392,-3.386213 -0.0717,-6.772167 -0.0872,-10.158577 -0.0215,-3.895198 -0.0682,-7.789423 -0.11963,-11.684327 -0.002,-1.80053 -0.002,-1.80053 -0.004,-3.637436 -0.14725,-8.516379 -1.95234,-14.288023 -6.29316,-21.52272 -5.18509,-4.904819 -12.54162,-7.303022 -19.57924,-7.334671 -1.09192,-0.0072 -2.18385,-0.01431 -3.30886,-0.02168 -1.79768,-0.004 -1.79768,-0.004 -3.63167,-0.0081 -1.26209,-0.0066 -2.52419,-0.01314 -3.82453,-0.01991 -4.1886,-0.02103 -8.37721,-0.0314 -12.56585,-0.04137 -1.44448,-0.004 -2.88896,-0.0082 -4.33344,-0.01235 -6.790601,-0.01905 -13.581194,-0.03328 -20.37182,-0.04161 -7.823058,-0.0098 -15.645832,-0.03604 -23.46879,-0.0765 -6.055371,-0.03024 -12.110661,-0.04498 -18.166106,-0.04828 -3.612101,-0.0023 -7.2239,-0.0112 -10.83592,-0.03646 -4.037924,-0.02778 -8.07522,-0.02343 -12.113234,-0.01649 -1.18428,-0.01281 -2.368561,-0.02562 -3.588729,-0.03882 -8.5526984,0.05342 -15.0919837,1.810853 -22.3993077,6.258789 -4.944075,5.234903 -7.2203933,11.709057 -7.3303223,18.822998 -0.01994,1.140956 -0.03989,2.281913 -0.06044,3.457443 -0.01671,1.231322 -0.03342,2.462644 -0.05064,3.731278 l -0.06297,3.820999 c -0.05434,3.348737 -0.104582,6.697484 -0.152847,10.04631 -0.05028,3.418634 -0.105879,6.837181 -0.161133,10.255738 -0.107981,6.705011 -0.20707,13.410071 -0.306641,20.115236 h -28 c -0.160435,-15.450807 -0.160435,-15.450807 -0.195312,-22.115236 -0.02377,-4.520296 -0.05167,-9.040263 -0.106445,-13.560303 -0.04396,-3.650506 -0.06748,-7.300659 -0.07775,-10.95141 -0.0073,-1.382064 -0.02156,-2.764112 -0.04341,-4.146023 -0.21168,-13.962633 2.359479,-25.376955 11.42292,-36.22703 l 1.808594,-2.183594 C -20.439417,5.1131877 -10.635909,0.05070199 0,0 Z"
     fill="#fef7e4"
     transform="translate(432.3922,86.8461)"
     id="path6"
     style="display:inline"
     sodipodi:nodetypes="ccccccccccccccccccccccccccccccccccccccccccccccccccccccccc" />
  <path
     d="m 0,0 3.8121338,-0.009552 c 1.3835859,0.00178978 2.7671716,0.00384073 4.1507568,0.00613403 1.4086509,-6.7309e-4 2.8173014,-0.00164315 4.2259524,-0.00289917 2.955781,-0.00147675 5.911532,6.7684e-4 8.867309,0.00534058 3.796734,0.00569729 7.593398,0.00241816 11.390129,-0.00357247 2.909824,-0.00360623 5.819631,-0.00246674 8.729454,1.278e-4 1.4003,6.6909e-4 2.8006,-1.5856e-4 4.200898,-0.00247956 C 47.330515,-0.00942829 49.284403,-0.0048958 51.238281,0 l 3.375611,0.00241089 c 2.505249,0.12698364 2.505249,0.12698364 3.505249,1.12698361 0.109524,1.8248166 0.149094,3.6538729 0.161132,5.4819336 0.0096,1.1714658 0.01922,2.3429315 0.02911,3.5498959 0.0042,1.275981 0.0085,2.551961 0.01288,3.866608 0.0057,1.301037 0.0114,2.602073 0.01727,3.942535 0.01052,2.759068 0.01635,5.518107 0.01984,8.277192 0.0055,3.536608 0.0295,7.072832 0.05797,10.609319 0.0231,3.369478 0.02507,6.738901 0.02992,10.108454 0.01235,1.271932 0.02469,2.543864 0.03741,3.85434 -0.003,1.17777 -0.006,2.35554 -0.0091,3.569 0.0055,1.557676 0.0055,1.557676 0.01105,3.14682 -0.367492,2.593903 -0.367492,2.593903 -1.532959,4.428436 -2.581034,1.639713 -4.494948,1.546602 -7.543518,1.55365 -1.756972,0.01418 -1.756972,0.01418 -3.549438,0.02866 -1.265658,-0.0061 -2.531316,-0.01214 -3.835327,-0.0184 -1.947311,0.0043 -1.947311,0.0043 -3.93396,0.0087 -2.74722,0.0044 -5.494147,-0.002 -8.241333,-0.01602 -3.520926,-0.01709 -7.041165,-0.0072 -10.562065,0.01072 -3.358436,0.01345 -6.716687,0.004 -10.0751424,-0.0034 -1.2656579,0.0061 -2.5313159,0.01215 -3.8353271,0.0184 -1.1713147,-0.0095 -2.3426294,-0.01891 -3.5494385,-0.02866 -1.54862732,-0.0036 -1.54862732,-0.0036 -3.12854,-0.0072 -2.5804444,-0.38095 -2.5804444,-0.38095 -4.4149781,-1.546417 -1.6470695,-2.592614 -1.5326587,-4.513956 -1.5219116,-7.575256 l -0.00909,-3.569 0.037414,-3.85434 c 0.00187,-1.30295 0.00375,-2.6059 0.00568,-3.948334 0.0046,-2.755629 0.019017,-5.510966 0.041199,-8.26651 0.028338,-3.538864 0.039217,-7.077498 0.043682,-10.616464 0.00515,-3.368767 0.019684,-6.737453 0.034443,-10.106192 l 0.012878,-3.866608 c 0.00961,-1.1714654 0.019215,-2.3429312 0.029114,-3.5498959 0.00683,-1.0368594 0.013656,-2.0737189 0.020691,-3.1419983 C -6.7467999,-1.1042023 -3.9704757,0.00283575 0,0 Z"
     fill="#35a9d9"
     transform="translate(480.88086,298.87061)"
     id="path7"
     style="display:inline"
     sodipodi:nodetypes="cccccccccccccccccccccccccccccccccccccccccccc" />
  <path
     d="m 0,0 c 4.2375045,3.1002828 7.0392302,5.703065 9.5703125,10.351563 l 1.3867185,2.4375 c 5.156308,10.157771 4.707755,19.951 1.652344,30.773437 -3.1843383,8.547435 -8.8198168,15.07907 -16.8828125,19.265625 -9.6311125,4.184391 -19.4831005,5.545316 -29.5312495,1.898437 -9.620771,-4.534831 -16.267769,-11.029566 -20.726563,-20.785156 -3.231153,-9.285791 -3.317715,-19.359261 0.851563,-28.320312 4.853061,-8.8113401 12.822196,-17.7746 22.726562,-20.8671877 C -19.512003,-7.0702974 -9.6749684,-6.5640461 0,0 Z"
     fill="#34a6d5"
     id="path8"
     style="display:inline"
     transform="translate(187.42969,567.64844)"
     sodipodi:nodetypes="cccccccccc" />
  <path
     d="M 0,0 C 0,0 74.074793,-26.499357 81.717759,-0.35407226 82.129318,1.0538008 79.328101,1.3773961 78,2 76.869514,2.5299633 75.641982,2.8293304 74.435517,3.1507348 72.424691,3.6864226 70.319928,3.8411792 68.327771,4.4425903 67.035005,4.8328629 65.673705,5.1701785 64.5625,5.9375 60.467838,8.764992 57.684208,13.02457 54.496094,16.960937 51.471448,20.695469 48.225118,24.196118 44.955322,27.715576 42.321771,30.55153 39.755545,33.425647 37.25,36.375 26.84972,48.749906 13.188505,56.693559 -2.1628418,61.36499 -6.9800703,62.443177 -11.713238,62.315376 -16.625,62.1875 -17.62918,62.17397 -18.633359,62.16043 -19.667969,62.14648 -22.112569,62.111562 -24.555977,62.062527 -27,62 c 0.549721,-5.283881 2.366747,-9.140653 4.8125,-13.75 2.688355,-5.205945 5.119117,-10.368022 7.207031,-15.847656 1.554635,-3.809165 3.458684,-7.433213 5.324219,-11.097657 C -7.771105,17.54329 -5.967985,13.749275 -4.1875,9.9375 L -3.2722168,7.9875488 C -2.0431076,5.347019 -0.922041,2.766123 0,0 Z"
     fill="#fbf3e0"
     transform="translate(234,213)"
     id="path9"
     style="display:inline"
     sodipodi:nodetypes="caaaaascccccccccccc" />
  <g
     id="g51">
    <path
       d="M 0,0 C 0.52673428,-0.40865076 1.5516793,-0.49340958 2,0 5.4552655,3.8027715 0.93573236,10.221919 0.52734375,15.34375 -0.3189656,25.95779 -2.0314716,36.588299 -1.4980469,47.222656 -0.94052905,58.337334 -1.1248487,70.254274 3.9423828,80.162354 12.943599,97.762649 28.59333,112.38694 45.726667,122.24803 c 7.50726,4.3208 16.504276,5.9218 25.14207,6.56741 C 85.9558,129.94308 102.23731,130.28326 116,124 c 20.31652,-9.27536 26.29327,-18.49608 49.01172,-45.683594 2.82267,-3.301547 4.36112,-2.487449 4.36112,-2.487449 -7.74708,17.973273 -34.29924,41.750033 -40.5955,47.065573 -5.85243,4.39553 -12.72216,7.03866 -19.19921,10.33984 C 95.278285,137.27098 78.493297,136.11871 63,138 c -5.346538,0.64921 -11.690722,-0.98064 -16,2.25 -4.016571,3.0112 -3.91678,9.25347 -6.194336,13.72705 C 33.839208,167.66058 27.309769,187.86402 18,194 c -4.571633,1.52388 -9.0382301,1.76291 -13.53125,0.0156 -9.8969174,-2.89774 -24.64297,-3.02568 -34.09375,1.23438 -5.267759,3.07643 -0.150094,0.35854 -7.6875,4.625 -7.245774,5.72922 -12.621186,13.26136 -14.375,22.40625 -1.788334,15.5585 0.156174,27.43522 9.902344,39.72656 2.021274,2.25569 4.024664,3.73742 6.785156,4.99219 -0.875,4.75 -0.875,4.75 -2,7 -7.933167,-2.40399 -14.319853,-9.31557 -18.347656,-16.35547 -6.59788,-12.71486 -8.119314,-27.85706 -4.8125,-41.91016 C -56.361419,204.12073 -48.512331,194.31015 -38,188 c 7.721348,-3.61312 15.229828,-3.64771 23,-4.375 1.008613,-0.0944 2.02785,-0.0565 3.039062,0.004 C -5.2724835,184.02926 1.3138882,185.56235 8,186 c 2.623795,0.17175 5.602214,1.39889 7.887614,0.0986 3.862258,-2.19744 4.720865,-7.54917 6.667073,-11.54393 1.297267,-2.66275 2.321162,-5.45385 3.320313,-8.24219 C 30.038031,154.69468 39.60597,143.06288 37,131 36.373815,128.10143 33.181306,126.44973 31.0625,124.375 25.077362,118.51437 17.33093,114.46143 12,108 3.879322,98.157222 -3.2745151,86.964178 -6.9730452,74.75162 -10.596379,62.787361 -10.713619,49.789111 -9.5802482,37.339713 -8.4152514,24.542924 -10.152574,7.8765655 0,0 Z"
       fill="#35a4d0"
       id="path10"
       style="display:inline"
       transform="translate(139,161)"
       sodipodi:nodetypes="aaaaaaaaccccaaacccccccccccaaaaaaaaaaaa" />
  </g>
  <path
     d="M 3.3059936,10.703904 C 0.35660795,13.744743 -5.6661783,18.676975 -9.75,23.0625 c -3.259769,3.500593 -6.0052,7.448291 -9.098267,11.097015 -2.175413,2.566217 -3.678305,5.289046 -6.651733,7.590485 -6.244327,1.419138 -12.348778,1.167976 -18.71875,0.976562 -1.826987,-0.01867 -3.654024,-0.0329 -5.481079,-0.04288 -4.788619,-0.03802 -9.574162,-0.136104 -14.361572,-0.247039 -4.893172,-0.102649 -9.786846,-0.148044 -14.680786,-0.198365 C -88.32947,42.131315 -97.914478,41.960846 -107.5,41.75 c 1.22012,-4.406494 2.51186,-8.378037 4.625,-12.4375 0.44602,-0.864961 0.89203,-1.729922 1.35156,-2.621094 0.33774,-0.640664 0.67547,-1.281328 1.02344,-1.941406 l 4.708145,-3.124434 c 3.893352,-2.838266 11.661394,-4.231122 17.464304,-6.421272 5.426401,-2.048046 10.426651,-6.3691033 16.226042,-6.2831855 10.912277,0.1616648 23.050418,0.4631267 33.778872,0.6447143 15.377073,0.2602692 33.0436955,-0.265479 31.6286306,1.1380812 z"
     fill="#182f33"
     transform="translate(341.5,171.25)"
     id="path11"
     style="display:inline"
     sodipodi:nodetypes="caaccccccccccassc" />
  <path
     d="M 0.93609342,0.15601557 C 1.9858495,-0.19545693 4.184218,-0.53635293 4.184218,-0.53635293 3.1787692,3.4854421 -0.89708234,10.740414 -2.625,14.5 l -1.5102539,3.313232 c -3.7377051,7.773985 -7.5915841,12.593025 -14.2553711,17.901612 -6.909196,6.050718 -8.186205,14.699782 -9.152344,23.4375 C -28.841401,65.67013 -31.836405,71.085646 -36,77 c -4.875,-2.75 -4.875,-2.75 -6,-5 0,0 -5.672307,-2.783271 -10,-7 -0.843899,-18.050067 2.876057,-33.443396 15.1875,-47.25 C -28.328308,8.6774091 -12.228109,4.5635679 0.93609342,0.15601557 Z"
     fill="#182d32"
     transform="translate(222,190)"
     id="path12"
     style="display:inline"
     sodipodi:nodetypes="accccccccca" />
  <path
     d="M 0,0 C 3.5995093,1.4275239 4.8982316,2.9770834 6.6875,6.375 L 7.9492187,8.7109375 C 11.912153,17.343947 10.900303,28.55263 8.09375,37.414062 3.621162,47.988538 -13.998201,58.378764 -16.787521,60.587479 c -2.385254,1.888756 -20.433282,5.892525 -30.64412,8.85881 -8.068725,2.343993 -16.819213,3.042738 -24.196963,7.063612 C -76.177629,78.989119 -80.79545,82.194609 -83.375,86.6875 -86.636276,92.367778 -87.809223,99.500259 -87,106 c 0.416884,3.34844 3.595702,5.87725 4.25,9.1875 0.376042,1.90248 1.51528,5.00961 -0.25,5.8125 -4.587637,2.08657 -6.900613,-0.31222 -11.8125,-9.4375 C -98.853165,104.05577 -97.121587,93.933073 -94,86 -91.437383,79.487471 -85.957055,74.148847 -80.1875,70.1875 -76.036384,67.337365 -71.000968,66.268574 -66,65 l 2.601563,-0.707031 c 4.689319,-1.235075 9.385677,-2.307027 14.152343,-3.195313 18.105785,-3.376297 33.071131,-7.730098 44.7500003,-22.863281 C -1.3530594,33.685681 -0.5717974,27.815339 0.87794147,22.552496 2.0745098,16.779449 0.87500495,13.48382 -2,8 -1.7644677,4.9380808 -1.3690247,2.7380494 0,0 Z"
     fill="#35a3d0"
     transform="translate(129,446)"
     id="path14"
     style="display:inline"
     sodipodi:nodetypes="ccccsaaaasssaaccccccc" />
  <path
     d="M 0,-0.71540716 C 4.4807811,-0.2248755 28.60926,9.9869646 30.8125,12.3125 c 2.20324,2.325535 -2.549797,17.415529 -8,19 -6.052242,1.759494 -30.1924679,-10.286884 -32,-15 C -11.423149,10.483076 -5.8470025,-1.3555053 0,-0.71540716 Z"
     fill="#b1c3ca"
     transform="translate(231.1875,30.6875)"
     id="path16"
     style="display:inline"
     sodipodi:nodetypes="zzzzz" />
  <path
     d="M 2.0031401,0.57232573 C 7.221144,-0.90631286 30.544438,12.251753 32,16 c 1.715675,4.418069 -1.656514,14.944249 -8,17 -6.343486,2.055751 -26.5287441,-7.359689 -28.9968599,-13.427674 -2.4491651,-6.021395 1.7819961,-17.5213617 7,-19.00000027 z"
     fill="#afc2c9"
     transform="translate(325,71)"
     id="path17"
     style="display:inline"
     sodipodi:nodetypes="zzzzz" />
  <path
     d="m 213.88248,320.05912 h 1 v 250 c -2.18278,-2.18278 -3,-8 -3,-8 0.004,-1.24113 0.008,-2.48226 0.0128,-3.76099 0.10058,-29.43131 0.20627,-58.8626 0.3183,-88.29387 0.0138,-3.61884 0.0275,-7.23768 0.0412,-10.85652 0.003,-0.72047 0.005,-1.44095 0.008,-2.18326 0.0441,-11.68109 0.0847,-23.3622 0.12407,-35.04331 0.0404,-11.97702 0.0846,-23.95402 0.13222,-35.93102 0.0267,-6.73102 0.0516,-13.46204 0.0722,-20.19308 0.0195,-6.32739 0.0437,-12.65474 0.0714,-18.98209 0.009,-2.32972 0.0171,-4.65945 0.0229,-6.98918 0.008,-3.16575 0.0225,-6.33141 0.0384,-9.49713 9.8e-4,-0.93481 0.002,-1.86961 0.003,-2.83275 0.0411,-6.32268 0.0411,-6.32268 1.15526,-7.4368 z"
     fill="#081316"
     id="path18"
     style="display:inline"
     sodipodi:nodetypes="cccccssssccccccc" />
  <path
     d="M 0,0 C 2,2 2,2 2.240509,4.4044495 2.236069,5.4126071 2.231629,6.4207648 2.227051,7.4594727 l -4.578e-4,3.4576723 -0.03128,3.746918 c -0.00283,1.262344 -0.00566,2.524689 -0.00858,3.825286 -0.00932,3.35712 -0.027289,6.71397 -0.049408,10.071015 -0.020454,3.425167 -0.029702,6.850363 -0.039673,10.275573 C 2.0772633,45.557444 2.0381183,52.278476 2,59 H 27 V 1 L 29,0 V 61 H 1 Z"
     fill="#fefef8"
     transform="translate(592,128)"
     id="path19"
     style="display:inline"
     sodipodi:nodetypes="ccccccccccccccc" />
  <path
     d="M 0,0 C 1.0025373,3.3065108 1.0903422,6.2405908 1.0217285,9.6865234 L 0.9608307,13.143738 0.8789063,16.859375 0.8073578,20.676086 C 0.7437761,24.016723 0.6755632,27.357199 0.60510255,30.697693 0.53427725,34.109585 0.46948669,37.521591 0.40429688,40.933594 0.27605447,47.622554 0.13776043,54.311201 0,61 H -28 V 16 l 2,-1 V 59 H -1 L -1.035156,46.601562 c -0.00643,-3.257751 -0.011852,-6.5155 -0.016594,-9.773254 -0.00529,-3.44148 -0.012351,-6.882936 -0.023689,-10.324402 -0.012921,-3.946611 -0.017793,-7.893213 -0.022217,-11.839843 -0.00516,-1.236483 -0.010323,-2.472966 -0.01564,-3.746918 L -1.1135249,7.4594727 C -1.1157449,6.451315 -1.1179649,5.4431573 -1.1202549,4.4044495 -1,2 -1,2 0,0 Z"
     fill="#fefef8"
     transform="translate(420,128)"
     id="path20"
     style="display:inline"
     sodipodi:nodetypes="cccccccccccccccsccccc" />
  <path
     d="m 0,0 2.0475259,0.00719607 c 2.2448359,0.01034626 4.4892655,0.03520764 6.7339835,0.06009519 1.6167696,0.01043502 3.2335466,0.01996858 4.8503266,0.02867126 4.375582,0.0260956 8.750972,0.06476399 13.126437,0.10572386 4.577687,0.0407035 9.155447,0.069797 13.733213,0.10013247 8.662587,0.0591632 17.325059,0.1287376 25.987537,0.20207083 9.864489,0.0830007 19.729051,0.15436714 29.593636,0.2247659 20.286601,0.14503581 40.573071,0.30465092 60.859481,0.47388962 v 1 c -1.26228,0.00497 -1.26228,0.00497 -2.55007,0.010031 -20.4639,0.081174 -40.92772,0.1732486 -61.391511,0.2774964 -9.896084,0.050149 -19.792159,0.096592 -29.688298,0.1343479 -8.624164,0.032912 -17.248265,0.072739 -25.872358,0.120915 -4.567566,0.025273 -9.13509,0.047052 -13.702707,0.060554 -4.297671,0.012814 -8.595195,0.03486 -12.892784,0.064039 -1.5786102,0.00908 -3.1572438,0.014767 -4.7358784,0.01683 -2.1532667,0.00332 -4.3061154,0.018785 -6.45929715,0.037314 -1.80855785,0.0083 -1.80855785,0.0083 -3.65365215,0.01676 -2.9758993,0.255067 -4.4814808,0.8788601 -7.0534403,2.2617131 -3.25,-0.375 -3.25,-0.375 -6,-1 C -11.685367,0.61421921 -6.3667941,-0.04878769 0,0 Z"
     fill="#254047"
     transform="translate(429.06786,61.797455)"
     id="path21"
     style="display:inline"
     sodipodi:nodetypes="ccccccccccccsccccccccc" />
  <path
     d="M 0,0 C 1.0877722,3.5000176 1.0864232,6.6774464 1.0217285,10.329102 L 0.9608307,14.210999 C 0.9336364,15.60421 0.9063255,16.997418 0.8789063,18.390625 0.854593,19.819796 0.83075,21.248975 0.8073578,22.678162 0.74463756,26.433077 0.67553705,30.187849 0.60510254,33.942627 0.53430989,37.776789 0.46955842,41.611053 0.40429688,45.445312 0.27544009,52.963654 0.13984206,60.481854 0,68 H -1 L -2,28 -3,33 -3.8137294,33.762603 -5.34375,35.242187 C -7.3464976,43.658496 -15.239993,51.836793 -21,58 h -2 v 10 h -1 c -0.943237,-4.810507 -1.183969,-7.605015 1,-12 1.769531,-2.246094 1.769531,-2.246094 3.8125,-4.4375 l 2.164063,-2.375 L -15,47 C -4.3119043,35.317663 -1.7414481,22.152372 -1.2109375,6.8789062 -1,3 -1,3 0,0 Z"
     fill="#0a1214"
     transform="translate(392,121)"
     id="path22"
     style="display:inline"
     sodipodi:nodetypes="ccccccccccccccccccccccc" />
  <path
     d="M 0,0 1,2 -4.6810333,12.403044 -2,5 -2.2539063,6.96875 C -3.269898,11.096549 -5.0788991,14.690691 -6.9375,18.5 -10.166674,25.162257 -10.166674,25.162257 -13,32 h -1 c -0.635912,-9.697659 1.908794,-18.296415 8,-26 1.9437532,-2.0730175 3.9425909,-4.0361095 6,-6 z"
     fill="#f4eee1"
     transform="translate(208,220)"
     id="path23"
     style="display:inline"
     sodipodi:nodetypes="cccccccccc" />
  <path
     d="m 0,0 1,3 c -18.660152,9.495576 -34.982038,14.743683 -56,15 l -1,-2 c 1.063597,-0.09704 1.063597,-0.09704 2.148682,-0.196045 C -34.28974,13.956429 -16.721751,11.147834 0,0 Z"
     fill="#162528"
     transform="translate(271,302)"
     id="path24"
     style="display:inline"
     sodipodi:nodetypes="cccccc" />
  <path
     d="m 0,0 1,3 c -8.6293812,11.985252 -22.341787,21.364211 -37,24 l -3,-1 c 1.290457,-0.586005 2.582469,-1.168585 3.875,-1.75 l 2.5,-1.125 c 2.474244,-1.06039 4.96735,-1.965843 7.5,-2.875 C -19.035872,17.856146 -14.109902,14.018848 -9,10 L -6.3203125,7.953125 C -3.5583955,5.6282791 -1.879563,3.0629916 0,0 Z"
     fill="#152428"
     transform="translate(290,169)"
     id="path26"
     style="display:inline"
     sodipodi:nodetypes="cccccccccc" />
  <path
     d="m 0,0 c 3.9597961,3.5274046 5.6626207,7.9412174 7,13 0.037531,3.190137 0.2887353,2.030844 -0.3221311,5.186987 L 4.4140625,18.859375 C 4.1513513,17.489524 3.8883133,16.119735 3.625,14.75 L 3.2421875,12.683594 C 2.5536901,9.137832 1.6793685,6.1834986 0,3 Z"
     fill="#152529"
     transform="translate(385,111)"
     id="path33"
     style="display:inline"
     sodipodi:nodetypes="cccccccc" />
  <path
     d="m -0.04124258,0.08248517 1,2.00000003 -2.38409002,6.3380995 C -4.4849609,11.804319 -4.2577213,11.592675 -5,12 L -7.2785201,11.660147 -8.1226597,8.9606559 Z"
     fill="#eae7dd"
     transform="translate(208,220)"
     id="path35"
     style="display:inline"
     sodipodi:nodetypes="ccccccc" />
  <path
     d="M 0,0 2,1 C 0.92807816,2.3218362 -0.15802695,3.6321793 -1.25,4.9375 L -3.078125,7.1523437 C -5.1074113,9.1032633 -6.254407,9.6173178 -9,10 -7.6181155,6.7895612 -6.075781,4.9506363 -3.375,2.75 l 1.9140625,-1.578125 z"
     fill="#329cc3"
     transform="translate(147,568)"
     id="path37"
     style="display:inline"
     sodipodi:nodetypes="cccccccc" />
  <path
     d="m 0,0 v 2 h -5 v 2 c -3.375,0.625 -3.375,0.625 -7,1 l -2,-2 c 1.581129,-0.5069269 3.165014,-1.0052644 4.75,-1.5 L -6.578125,0.65625 C -4,0 -4,0 0,0 Z"
     fill="#2b3839"
     transform="translate(426,62)"
     id="path38"
     style="display:inline"
     sodipodi:nodetypes="ccccccccc" />
  <path
     d="M 0,0 C 0,3 0,3 -2.25,5.8125 -4.7246959,7.8209488 -5.8272598,8.0070327 -9.0703125,7.875 -12.085903,7.361708 -15.035752,6.7530533 -18,6 V 5 l 2.667969,0.1757812 c 6.3737447,0.501258 6.3737447,0.501258 12.3085935,-1.2890624 C -1.5182724,2.403964 -1.5182724,2.403964 0,0 Z"
     fill="#3090b0"
     transform="translate(159,342)"
     id="path39"
     style="display:inline"
     sodipodi:nodetypes="cccccccc" />
  <path
     d="M 0,0 C 1.5142096,-1.307417 3.9583333,0.58333334 5.9375,0.875 7.0507813,1.0390625 8.1717285,1.1576009 9.2773438,1.3671875 10.192784,1.5407235 11.268385,1.4230384 12,2 12.585262,2.4615454 13.439062,3.3976875 13,4 10.417361,7.5429083 2.8547631,5.3275441 0,2 -0.43408725,1.494023 -0.50459969,0.43568751 0,0 Z"
     fill="#132326"
     transform="translate(199,315)"
     id="path40"
     style="display:inline"
     sodipodi:nodetypes="aaaaaaa" />
  <path
     d="M 0,0 2,2 C 0.625,4 0.625,4 -1,6 L -1.5058565,7.6435578 -3,16 H -4 C -4.9253032,11.280954 -5.3166186,8.2857444 -3,4 -2.0417575,2.6363472 -1.0527883,1.2920583 0,0 Z"
     fill="#0c1518"
     transform="translate(372,173)"
     id="path43"
     style="display:inline"
     sodipodi:nodetypes="cccccccc" />
  <path
     d="M 0,0 C 0,4.3161817 -2.1327035,5.9278966 -5,9 H -7 C -5.4449902,5.1831577 -2.9640451,2.8080427 0,0 Z"
     fill="#172528"
     transform="translate(347,203)"
     id="path47"
     style="display:inline"
     sodipodi:nodetypes="cccc" />
  <path
     style="fill:#35a4d0;fill-opacity:1"
     d="m 298.27261,252.16597 -15.26919,18.72511"
     id="path52"
     sodipodi:nodetypes="cc" />
  <ellipse
     style="fill:#2d98c3;fill-opacity:1;stroke-width:0.70512"
     id="path53-5"
     cx="254.49026"
     cy="148.25481"
     rx="19.049948"
     ry="18.338051" />
  <ellipse
     style="fill:#35a4d0;fill-opacity:1;stroke-width:0.70512"
     id="path53"
     cx="252.20918"
     cy="149.43056"
     rx="19.049948"
     ry="18.338051" />
  <ellipse
     style="fill:#000000;fill-opacity:1;stroke:#000000;stroke-width:6.8337;stroke-dasharray:none;stroke-opacity:1"
     id="path54"
     cx="166.57095"
     cy="597.54559"
     rx="14.695517"
     ry="14.56993" />
  <ellipse
     style="mix-blend-mode:darken;fill:#808080;fill-opacity:1;stroke:#000000;stroke-width:0;stroke-dasharray:none;stroke-opacity:1"
     id="path54-7"
     cx="167.38661"
     cy="596.56818"
     rx="17.835205"
     ry="16.997955" />
  <circle
     id="path64"
     style="fill:#808080;stroke:#000000;fill-opacity:1"
     cx="53.725014"
     cy="540.72778"
     r="0" />
</svg>
